<svg xmlns="http://www.w3.org/2000/svg" width="325" height="192" viewBox="0 0 325 192" role="img" aria-label="Top languages (by code size)">
  <rect x="0.5" y="0.5" width="324" height="191" rx="6" fill="#1a1b27" stroke="#2b2d3f"/>
  <text x="25" y="35" font-family="'Segoe UI', Ubuntu, 'Helvetica Neue', Arial, sans-serif" font-size="18" font-weight="600" fill="#70a5fd">Top languages (by code size)</text>
  <clipPath id="bar"><rect x="25" y="52" width="275" height="10" rx="5"/></clipPath>
  <g clip-path="url(#bar)">
    <rect x="25.00" y="52" width="82.88" height="10" fill="#3178c6"/>
    <rect x="107.88" y="52" width="72.33" height="10" fill="#3572A5"/>
    <rect x="180.21" y="52" width="48.14" height="10" fill="#178600"/>
    <rect x="228.34" y="52" width="26.01" height="10" fill="#A97BFF"/>
    <rect x="254.36" y="52" width="15.01" height="10" fill="#b07219"/>
    <rect x="269.37" y="52" width="10.84" height="10" fill="#e34c26"/>
    <rect x="280.21" y="52" width="10.04" height="10" fill="#3D6117"/>
    <rect x="290.26" y="52" width="9.74" height="10" fill="#ff3e00"/>
  </g>
  <circle cx="30" cy="88" r="5" fill="#3178c6"/>
  <text x="41" y="92" font-family="'Segoe UI', Ubuntu, 'Helvetica Neue', Arial, sans-serif" font-size="12" fill="#38bdae">TypeScript <tspan fill="#c9d1d9" font-weight="600">30.1%</tspan></text>
  <circle cx="175" cy="88" r="5" fill="#3572A5"/>
  <text x="186" y="92" font-family="'Segoe UI', Ubuntu, 'Helvetica Neue', Arial, sans-serif" font-size="12" fill="#38bdae">Python <tspan fill="#c9d1d9" font-weight="600">26.3%</tspan></text>
  <circle cx="30" cy="112" r="5" fill="#178600"/>
  <text x="41" y="116" font-family="'Segoe UI', Ubuntu, 'Helvetica Neue', Arial, sans-serif" font-size="12" fill="#38bdae">C# <tspan fill="#c9d1d9" font-weight="600">17.5%</tspan></text>
  <circle cx="175" cy="112" r="5" fill="#A97BFF"/>
  <text x="186" y="116" font-family="'Segoe UI', Ubuntu, 'Helvetica Neue', Arial, sans-serif" font-size="12" fill="#38bdae">Kotlin <tspan fill="#c9d1d9" font-weight="600">9.5%</tspan></text>
  <circle cx="30" cy="136" r="5" fill="#b07219"/>
  <text x="41" y="140" font-family="'Segoe UI', Ubuntu, 'Helvetica Neue', Arial, sans-serif" font-size="12" fill="#38bdae">Java <tspan fill="#c9d1d9" font-weight="600">5.5%</tspan></text>
  <circle cx="175" cy="136" r="5" fill="#e34c26"/>
  <text x="186" y="140" font-family="'Segoe UI', Ubuntu, 'Helvetica Neue', Arial, sans-serif" font-size="12" fill="#38bdae">HTML <tspan fill="#c9d1d9" font-weight="600">3.9%</tspan></text>
  <circle cx="30" cy="160" r="5" fill="#3D6117"/>
  <text x="41" y="164" font-family="'Segoe UI', Ubuntu, 'Helvetica Neue', Arial, sans-serif" font-size="12" fill="#38bdae">TeX <tspan fill="#c9d1d9" font-weight="600">3.7%</tspan></text>
  <circle cx="175" cy="160" r="5" fill="#ff3e00"/>
  <text x="186" y="164" font-family="'Segoe UI', Ubuntu, 'Helvetica Neue', Arial, sans-serif" font-size="12" fill="#38bdae">Svelte <tspan fill="#c9d1d9" font-weight="600">3.5%</tspan></text>
</svg>
